# xmcd
#
# Track frame offsets: 
#        150
#        12691
#        29907
#        47572
#        61340
#        73162
#        94218
#        108168
#        124664
#        142401
#
# Disc length: 1922 seconds
#
# Revision: 0
# Processed by: cddbd v1.5.2PL0 Copyright (c) Steve Scherf et al.
# Submitted via: ExactAudioCopy v0.99pb5
#
DISCID=9a07800a
DTITLE=David Booker - Brother I'm Here
DYEAR=2001
DGENRE=Blues
TTITLE0=Good Evenin' Everybody
TTITLE1=Swamp Witch
TTITLE2=I'm Gonna Shoot My Baby
TTITLE3=It's Your Voodoo Workin'
TTITLE4=If You Wanna Be Happy
TTITLE5=Do You Have A Garter Belt?
TTITLE6=I Love My Baby
TTITLE7=Hoodoo On You
TTITLE8=Rainy Day
TTITLE9=Zero Attention Span Blues
EXTD=
EXTT0=
EXTT1=
EXTT2=
EXTT3=
EXTT4=
EXTT5=
EXTT6=
EXTT7=
EXTT8=
EXTT9=
PLAYORDER=
